<svg width="32" height="32" viewBox="0 0 32 32" fill="none" xmlns="http://www.w3.org/2000/svg">
  <rect width="32" height="32" rx="8" fill="url(#gradient)"/>
  <g filter="url(#shadow)">
    <path d="M11 9C9.34315 9 8 10.3431 8 12V14C8 15.6569 9.34315 17 11 17H13C14.6569 17 16 15.6569 16 14V12C16 10.3431 14.6569 9 13 9H11Z" fill="white"/>
    <path d="M19 15C17.3431 15 16 16.3431 16 18V20C16 21.6569 17.3431 23 19 23H21C22.6569 23 24 21.6569 24 20V18C24 16.3431 22.6569 15 21 15H19Z" fill="white"/>
    <path d="M14 14L18 18" stroke="white" stroke-width="2.5" stroke-linecap="round"/>
  </g>
  <defs>
    <linearGradient id="gradient" x1="0" y1="0" x2="32" y2="32" gradientUnits="userSpaceOnUse">
      <stop stop-color="#8B5CF6"/>
      <stop offset="1" stop-color="#6D28D9"/>
    </linearGradient>
    <filter id="shadow" x="6" y="8" width="20" height="18" filterUnits="userSpaceOnUse">
      <feGaussianBlur stdDeviation="0.5" result="blur"/>
      <feOffset dy="0.5"/>
    </filter>
  </defs>
</svg>
